<?xml version="1.0" encoding="UTF-8"?><svg id="a" xmlns="http://www.w3.org/2000/svg" viewBox="0 0 38.5 8.55"><defs><style>.b{fill:#0c4ab1;}</style></defs><path class="b" d="M6.1,2.78c-.04-.13-.13-.26-.27-.39s-.36-.27-.64-.42c-.28-.14-.65-.29-1.1-.44-.44-.15-.82-.24-1.14-.28-.32-.04-.58-.03-.78.02-.2.05-.36.14-.48.26s-.2.26-.26.43c-.09.27-.09.51,0,.71.09.2.27.38.53.55.26.17.6.34,1.02.52.19.08.32.16.39.24s.09.16.06.25c-.03.1-.09.15-.18.17s-.18.01-.28-.02c-.15-.05-.28-.11-.39-.19-.11-.07-.21-.15-.31-.24-.09-.09-.2-.17-.31-.25-.11-.08-.24-.14-.4-.2-.19-.07-.38-.06-.56.02-.18.08-.35.22-.51.42-.16.2-.29.44-.38.72-.11.32-.13.63-.05.92.08.29.28.56.6.81.32.25.8.48,1.44.7.68.23,1.24.33,1.7.3.46-.03.83-.17,1.1-.43.28-.27.49-.63.65-1.09.15-.44.18-.81.1-1.11s-.26-.56-.53-.79c-.27-.22-.62-.44-1.04-.64-.16-.08-.28-.15-.38-.2-.1-.05-.16-.11-.18-.17-.03-.06-.03-.12-.01-.17.03-.1.1-.15.2-.17.1-.02.23,0,.39.05.15.05.29.12.41.2.13.08.24.16.35.24s.21.15.32.22.21.12.33.15c.12.04.24.04.35,0,.11-.05.19-.15.25-.31.04-.12.04-.24,0-.37Z"/><path class="b" d="M12.18,6.12c-.04-.16-.07-.32-.1-.48-.03-.17-.05-.34-.05-.52-.02-.19-.03-.37-.03-.53,0-.17,0-.33-.01-.49,0-.16-.02-.31-.03-.44s-.04-.27-.08-.39c-.07-.23-.16-.39-.28-.48-.12-.1-.29-.15-.51-.17-.23-.02-.42.04-.57.16-.14.12-.24.29-.29.51-.02.09-.03.18-.03.27,0,.09,0,.18,0,.26s0,.17,0,.25c0,.08-.02.16-.04.24-.03.09-.08.17-.15.23s-.16.12-.26.15c-.11.03-.24.04-.39.03-.21-.01-.38-.05-.5-.12-.12-.07-.19-.18-.21-.35-.01-.06-.02-.13-.02-.2,0-.07.01-.14.03-.21.02-.07.03-.15.05-.22.01-.08.03-.16.04-.24.01-.08.01-.17,0-.26-.02-.23-.1-.4-.24-.52-.14-.12-.34-.19-.58-.2-.2-.01-.37.02-.52.1-.15.08-.27.23-.37.45-.05.12-.09.25-.13.39-.03.14-.06.28-.09.44-.03.15-.06.31-.09.47-.03.16-.06.33-.11.5-.03.16-.07.31-.12.45s-.09.27-.14.41c-.04.13-.09.26-.13.39-.04.13-.07.26-.1.4-.02.14-.04.28-.03.42,0,.48.15.85.43,1.09.28.25.73.39,1.34.43.35.02.64,0,.88-.07s.44-.19.59-.38.27-.44.33-.76c.05-.22.09-.41.11-.57.02-.16.05-.3.07-.42.04-.2.1-.33.17-.42.07-.08.15-.12.25-.11.09,0,.16.04.21.1.05.06.07.17.06.31,0,.13-.04.28-.1.45-.06.17-.12.35-.18.53-.06.19-.1.38-.11.57-.02.33.05.58.22.72s.41.23.73.25c.4.03.69-.04.88-.21.19-.17.31-.42.36-.77.02-.17.03-.34.02-.5-.01-.16-.04-.32-.07-.47-.03-.15-.07-.31-.1-.47Z"/><path class="b" d="M19.31,6.04c-.04-.13-.08-.27-.13-.41-.05-.14-.1-.29-.15-.44-.05-.16-.1-.33-.15-.52-.04-.15-.07-.3-.09-.44-.03-.14-.05-.28-.07-.4-.02-.12-.04-.24-.06-.35-.02-.11-.04-.21-.07-.32s-.06-.21-.11-.32c-.11-.21-.24-.36-.37-.44-.14-.08-.31-.11-.51-.1-.17.01-.31.06-.41.14s-.16.21-.16.4c0,.08,0,.16.02.21.01.06.03.12.04.17.02.06.03.11.05.16s.03.11.04.18c.01.07.02.14.02.22-.01.13-.05.23-.1.31-.05.08-.14.12-.27.13-.08,0-.16,0-.23-.04s-.15-.08-.23-.15c-.07-.07-.14-.15-.2-.25s-.12-.22-.18-.35c-.07-.18-.15-.33-.23-.46-.08-.12-.18-.22-.28-.29-.11-.07-.24-.12-.4-.14-.16-.02-.34-.03-.56-.01-.23.02-.41.05-.56.1-.15.05-.26.12-.35.22-.09.09-.15.22-.19.38-.03.11-.05.22-.06.33,0,.11-.01.22-.02.33,0,.11-.02.23-.02.35,0,.12,0,.26,0,.4s0,.29,0,.45c-.01.2-.04.38-.07.55s-.07.32-.1.45c-.03.14-.06.28-.09.41-.03.13-.05.28-.06.42-.01.15,0,.3.04.45.04.29.13.51.26.67.13.16.31.27.54.33.23.06.5.08.82.05.29-.02.53-.08.72-.17.19-.09.34-.22.43-.4.1-.18.14-.41.11-.69-.02-.2-.06-.38-.12-.54-.06-.16-.14-.31-.22-.46-.08-.15-.16-.29-.24-.42s-.14-.26-.2-.39-.09-.26-.1-.39c-.01-.14,0-.25.01-.33.02-.07.05-.13.08-.16.04-.04.08-.06.14-.06.08,0,.16.03.24.1s.16.2.24.37c.08.17.16.41.25.72.09.3.18.68.27,1.14.07.38.17.68.31.89.14.21.34.36.58.44s.55.11.93.08c.3-.02.55-.08.75-.17.2-.09.35-.22.45-.41.1-.19.15-.43.16-.72-.01-.14-.03-.29-.05-.43-.02-.14-.05-.28-.09-.41Z"/><path class="b" d="M25.16,3.15c-.21-.37-.5-.68-.85-.92-.36-.24-.77-.4-1.25-.49s-1.02-.08-1.62.02c-.27.04-.5.1-.68.15-.18.06-.32.12-.43.19s-.19.16-.25.26-.09.22-.11.36c-.02.15-.03.29-.03.43s0,.29,0,.44c0,.15.02.31.03.47,0,.17.01.35.02.54,0,.19,0,.38,0,.57,0,.19-.02.37-.02.55,0,.18,0,.36.01.54.01.18.04.36.08.54.05.2.13.36.24.49.11.13.26.23.46.3.2.07.46.1.78.09.32,0,.72-.05,1.18-.12.81-.13,1.44-.33,1.9-.6.46-.27.76-.61.91-1.03.15-.42.18-.93.08-1.52-.08-.48-.22-.91-.44-1.28ZM23.13,4.1c-.16.13-.43.22-.82.29-.14.02-.26.02-.36,0s-.19-.08-.26-.17c-.07-.09-.12-.23-.15-.41-.03-.16-.02-.29,0-.38s.08-.17.17-.22c.08-.05.19-.09.33-.11.4-.06.7-.05.9.03s.33.24.36.46-.03.39-.18.52Z"/><path class="b" d="M32.21,4.16c-.05-.16-.11-.3-.18-.43-.07-.13-.14-.27-.22-.42-.08-.15-.16-.32-.24-.48s-.15-.36-.21-.58c-.12-.36-.26-.67-.41-.94-.15-.26-.33-.46-.55-.61-.22-.14-.49-.24-.82-.28s-.72-.02-1.18.05c-.46.08-.84.18-1.13.32-.29.14-.52.31-.68.52-.16.21-.28.46-.35.75-.07.29-.09.63-.07,1.01,0,.23-.02.43-.05.62-.02.19-.05.37-.08.54-.03.17-.05.33-.07.47-.02.14-.03.3-.04.46,0,.16.02.33.06.5.05.27.15.49.29.64.14.16.33.25.57.3.24.04.54.04.89-.02.33-.05.59-.14.78-.25.2-.12.33-.27.41-.46.08-.19.1-.41.06-.65-.03-.2-.08-.36-.13-.5s-.11-.25-.17-.35c-.06-.1-.12-.19-.17-.27-.06-.08-.1-.16-.15-.24-.04-.08-.07-.16-.08-.25-.01-.07,0-.14.01-.19.02-.06.07-.11.16-.15.08-.04.21-.08.37-.1.16-.03.29-.03.38-.02s.16.05.2.1c.04.05.07.11.08.18.01.09.01.18,0,.26-.02.08-.04.17-.07.27-.03.1-.06.2-.09.31s-.04.24-.05.39c0,.15.01.32.04.51.04.24.13.44.26.6.13.16.31.26.54.3.22.05.5.05.82,0,.35-.06.64-.14.85-.26.21-.12.36-.27.45-.46.09-.19.11-.43.08-.7-.02-.17-.06-.33-.11-.48ZM29.37,2.33c-.11.07-.32.12-.64.18-.32.05-.54.06-.66.03s-.19-.12-.22-.27c-.03-.17.02-.3.14-.37.12-.08.33-.14.6-.18.27-.04.48-.05.63-.02s.24.14.26.31c.02.15-.02.26-.13.32Z"/><path class="b" d="M38.46,3.9c-.02-.13-.05-.26-.08-.41s-.06-.3-.09-.46c-.03-.17-.05-.35-.06-.55-.03-.19-.05-.36-.06-.53-.01-.17-.02-.32-.04-.48-.01-.15-.03-.3-.05-.43-.02-.14-.05-.26-.08-.38-.09-.22-.19-.38-.32-.47-.12-.09-.3-.14-.53-.14-.17,0-.31.02-.41.08-.1.06-.17.13-.22.23s-.08.21-.08.32c0,.12,0,.24,0,.36.02.08.03.17.01.25-.01.08-.05.16-.1.22-.05.07-.14.12-.27.16-.12.04-.29.06-.51.05-.17,0-.32-.02-.44-.06s-.2-.09-.26-.16c-.06-.07-.09-.14-.11-.22-.02-.08-.02-.16,0-.24.03-.11.04-.22.04-.32,0-.1,0-.19-.02-.28-.02-.09-.05-.16-.11-.23-.06-.06-.13-.11-.22-.15-.09-.04-.21-.06-.35-.06-.2,0-.37.03-.51.1-.13.07-.23.19-.29.36-.03.08-.04.16-.04.23,0,.07,0,.15,0,.23,0,.08,0,.16,0,.24,0,.08-.02.16-.03.25-.02.11-.03.23-.03.34,0,.11,0,.21.03.31.03.16.11.29.24.4s.34.15.65.16c.2,0,.38,0,.55-.04.17-.03.33-.05.49-.08.15-.02.3-.04.43-.03.09,0,.17.02.23.07.06.04.09.12.09.24,0,.16-.05.27-.14.31-.09.05-.21.07-.34.07-.19,0-.38-.02-.57-.06-.19-.04-.4-.07-.61-.1-.21-.03-.44-.05-.69-.06-.23,0-.43.06-.6.2-.17.14-.29.32-.38.56-.09.24-.13.52-.14.83,0,.26.04.49.14.66.1.18.26.32.49.43.23.11.54.19.94.24.4.05.9.08,1.52.09.5,0,.94,0,1.3-.05.36-.04.66-.12.9-.22.24-.1.42-.24.55-.4.13-.16.21-.35.24-.57.02-.14.03-.28.02-.41s-.02-.26-.04-.39Z"/></svg>